<svg width="24" height="23" viewBox="0 0 24 23" fill="none" xmlns="http://www.w3.org/2000/svg">
<g id="arrow right">
<path id="XMLID 1522" d="M19.3651 12.2593L14.3851 16.951C14.2251 17.1012 14.0251 17.1762 13.8251 17.1762C13.6251 17.1762 13.4251 17.1012 13.2651 16.951C12.9451 16.6508 12.9451 16.1816 13.2651 15.8813L16.8851 12.4658H5.20509C4.76509 12.4658 4.40509 12.1279 4.40509 11.7151C4.40509 11.3022 4.76509 10.9644 5.20509 10.9644H16.8851L13.2651 7.54883C12.9451 7.24855 12.9451 6.77938 13.2651 6.47911C13.5851 6.17884 14.0851 6.17884 14.4051 6.47911L19.3851 11.1708C19.6851 11.4899 19.6851 11.9778 19.3651 12.2593Z" fill="black"/>
</g>
</svg>
