<svg width="20" height="20" viewBox="0 0 20 20" fill="none" xmlns="http://www.w3.org/2000/svg">
<g id="Phone 24px">
<path id="Vector" d="M13.4307 13.0668L12.9152 13.8401C12.8124 13.9944 12.6763 14.1261 12.4969 14.1735C11.9095 14.3287 10.3499 14.3988 7.97554 12.0244C5.60114 9.65004 5.67122 8.09046 5.82645 7.50302C5.87383 7.32368 6.00553 7.1876 6.15987 7.0847L6.93312 6.5692C7.50882 6.1854 7.66438 5.40757 7.28058 4.83187L5.82018 2.64126C5.48518 2.13876 4.83937 1.94678 4.28427 2.18468L3.62548 2.46702C3.12502 2.6815 2.71678 3.06643 2.47328 3.55343C2.26984 3.96031 2.11217 4.38877 2.0908 4.84317C2.02348 6.27515 2.33747 9.80312 6.26716 13.7328C10.1969 17.6625 13.7248 17.9765 15.1568 17.9092C15.6112 17.8878 16.0396 17.7301 16.4465 17.5267C16.9335 17.2832 17.3184 16.8749 17.5329 16.3745L17.8153 15.7157C18.0532 15.1606 17.8612 14.5148 17.3587 14.1798L15.1681 12.7194C14.5924 12.3356 13.8145 12.4911 13.4307 13.0668Z" fill="#898989"/>
</g>
</svg>
